<svg width="42" height="22" viewBox="0 0 42 22" fill="none" xmlns="http://www.w3.org/2000/svg">
<g clip-path="url(#clip0_7001_278)">
<path d="M16.2882 5.94366C18.0242 5.05185 19.8114 5.01557 21.6134 5.73175C22.8861 6.23725 23.744 7.15246 24.2589 8.38019C24.3742 8.65556 24.4663 8.94122 24.5871 9.21319C24.6577 9.3737 24.7443 9.53547 24.8605 9.66437C25.0603 9.88836 25.3002 9.89835 25.506 9.68194C25.7057 9.47284 25.8858 9.23903 26.046 8.99835C27.4277 6.93915 29.3426 5.75179 31.8449 5.35773C33.3402 5.12279 34.8138 5.20613 36.216 5.78839C36.4805 5.89883 36.7482 6.00065 37.0187 6.09601C37.6964 6.33285 38.37 6.30445 39.0382 6.0462C39.3939 5.90902 39.7523 5.77766 40.1124 5.64972C40.384 5.55193 40.6696 5.53297 40.9582 5.51788C41.5661 5.48652 41.8966 5.94094 41.9347 6.37433C41.9643 6.69725 41.9962 7.0226 41.9972 7.34698L41.9953 7.34796C42.0003 9.50551 41.9982 11.6636 41.9982 13.8216H41.9943C41.9943 15.9794 41.9964 18.1379 41.9914 20.2962C41.9913 20.5925 41.9683 20.8906 41.9357 21.1859C41.883 21.6457 41.5655 21.9104 41.0919 21.9407C40.9161 21.9519 40.739 21.9641 40.5626 21.9564C40.398 21.9491 40.2334 21.9238 40.0783 21.8685C39.9074 21.8077 39.763 21.7104 39.6232 21.5989C39.4905 21.4924 39.3677 21.3748 39.255 21.2484C39.199 21.1852 39.1454 21.1196 39.0949 21.0521C39.0454 20.9855 39.0016 20.9204 38.9386 20.8646C38.6487 20.6083 38.2715 20.5532 37.9044 20.6741C37.5888 20.7778 36.5273 21.3065 36.1681 21.4495C36.1572 21.4539 36.1468 21.4574 36.1359 21.4622C34.0047 22.211 31.8894 22.1804 29.7882 21.3538C28.8522 20.9666 27.9953 20.5155 27.2736 19.7972C26.732 19.2586 26.2667 18.664 25.7111 18.1419C25.4271 17.8753 25.1287 17.9545 25.0246 18.3265C24.9685 18.5307 24.9452 18.7469 24.9357 18.9593C24.9202 19.2838 24.9335 19.6113 24.924 19.9368C24.913 20.2889 24.8993 20.6424 24.8683 20.9944C24.8237 21.5072 24.5032 21.8541 23.9787 21.9505C23.5894 22.0225 23.1955 22.0112 22.8097 21.9134C22.4075 21.8112 22.1031 21.4578 22.0685 21.0472C22.0385 20.6951 22.0158 20.3416 22.0148 19.9896C22.0078 17.3384 22.0147 14.6866 21.9982 12.0355C21.9937 11.2912 21.8966 10.5533 21.6046 9.85089C21.1147 8.66959 19.4999 7.90137 18.1603 7.81671C18.091 7.81187 18.0231 7.80987 17.9552 7.8089C15.9032 7.787 13.9746 9.822 13.922 11.8372C13.909 12.309 13.9079 12.7453 13.9054 13.2171C13.8934 15.6079 13.9016 17.9987 13.8966 20.388C13.8956 20.6287 13.8776 20.8724 13.8371 21.1097C13.7664 21.5344 13.5146 21.8195 13.0753 21.9232C12.6506 22.0243 12.2207 22.0266 11.798 21.9105C11.3912 21.7976 11.1402 21.5369 11.0841 21.1253C11.0516 20.8953 11.0304 20.6625 11.0304 20.431C11.0259 17.7246 11.0352 15.0177 11.0207 12.3109C11.0161 11.5018 10.9517 10.6885 10.6271 9.92804C10.1407 8.78626 8.31954 7.83292 7.02651 7.81085C7.00948 7.80988 6.99321 7.80988 6.97768 7.80988C5.8322 7.80992 5.43471 8.03986 4.60366 8.56769C3.37885 9.34565 3.13296 10.689 2.97866 12.0853C2.93557 12.4725 2.91911 12.8645 2.91811 13.2542C2.9121 15.5243 2.91629 17.7942 2.91128 20.0638C2.91026 20.3877 2.88873 20.7135 2.85268 21.0364C2.79909 21.5306 2.48636 21.8497 1.98257 21.9427C1.5934 22.0161 1.20031 22.0229 0.812644 21.9368C0.357745 21.8371 0.084364 21.5265 0.0558076 21.0716C0.0292611 20.645 0.00656184 20.2169 0.00404978 19.7903C-0.00196182 18.2924 -0.00293775 16.7947 0.00307322 15.2972C0.00908473 14.0332 0.0401787 12.7681 0.0401826 11.5042C0.0411845 10.287 0.00906348 9.0681 0.00404978 7.85089C0.0030478 7.38723 0.0272512 6.92149 0.0558076 6.45734C0.0955225 5.82507 0.55746 5.47133 1.2101 5.54816C1.72963 5.60946 2.21761 5.77399 2.69155 5.97882C3.48639 6.32159 4.27629 6.35149 5.08315 6.01202C5.55702 5.81355 6.03504 5.60871 6.52944 5.47491C8.03942 5.06769 9.51301 5.19763 10.9113 5.89191C11.4287 6.14878 11.9085 6.47944 12.4054 6.7757C12.9409 7.09432 13.5118 7.25013 14.133 7.09113C14.3699 7.02934 14.6037 6.92956 14.8156 6.81085C15.314 6.53164 15.7818 6.20393 16.2882 5.94366ZM34.8976 8.00519C33.7078 7.68753 32.5292 7.7592 31.381 8.19073C30.071 8.6826 29.1202 9.56548 28.5265 10.8177C28.1047 11.7085 27.9085 12.6452 27.923 13.7044C27.898 14.4453 28.0607 15.2327 28.3517 15.9964C28.8567 17.3206 29.7359 18.3228 31.0519 18.9124C32.0984 19.3818 33.2033 19.5294 34.3419 19.3421C35.5308 19.146 36.5518 18.6241 37.3732 17.7806L37.5343 17.6077C38.7028 16.3069 39.1455 14.7512 38.9914 13.0433C38.8516 11.4908 38.2135 10.1591 36.9982 9.11944C36.3805 8.59156 35.6832 8.21586 34.8976 8.00519ZM36.8312 0.00616386C37.0667 0.00859652 37.3098 0.048387 37.5363 0.112609C37.8788 0.209989 38.0793 0.498228 38.0958 0.846008C38.1152 1.25583 37.9433 1.57991 37.6124 1.72003C37.4827 1.775 37.3396 1.81772 37.1994 1.83038C36.8568 1.86102 36.5122 1.88506 36.1681 1.88605C34.358 1.89091 32.5475 1.8914 30.7374 1.88605C30.4223 1.88507 30.1062 1.86103 29.7921 1.83038C29.4184 1.79389 29.1301 1.60355 29.0109 1.26007C28.8893 0.909443 28.9143 0.551985 29.2277 0.285461C29.3384 0.191594 29.4853 0.117876 29.6281 0.0842889C29.84 0.0341761 30.063 0.00762345 30.2814 0.00616386C31.373 -0.00113143 32.4652 0.00225761 33.5568 0.00225761L33.5558 0.00128104C34.6474 0.00128104 35.7397 -0.00502155 36.8312 0.00616386Z" fill="#443D3D"/>
</g>
<defs>
<clipPath id="clip0_7001_278">
<rect width="42" height="22" fill="white"/>
</clipPath>
</defs>
</svg>
